<?xml version="1.0" encoding="utf-8"?>
<!-- Generator: Adobe Illustrator 19.1.0, SVG Export Plug-In . SVG Version: 6.00 Build 0)  -->
<!DOCTYPE svg PUBLIC "-//W3C//DTD SVG 1.1//EN" "http://www.w3.org/Graphics/SVG/1.1/DTD/svg11.dtd">
<svg version="1.1" id="Layer_1" xmlns="http://www.w3.org/2000/svg" xmlns:xlink="http://www.w3.org/1999/xlink" x="0px" y="0px"
	 width="277.4px" height="266.7px" viewBox="89 -83.7 277.4 266.7" enable-background="new 89 -83.7 277.4 266.7"
	 xml:space="preserve">
<g>
	<path opacity="0.1" enable-background="new    " d="M365,72.4c-0.4-0.6-1.1-1.3-2.7-1.3c-2.4,0-6.5,1.6-12.2,4.8
		c-11.8,6.5-21.8,9.8-29.6,9.8c-13,0-20.7-9.1-23.5-27.8c5.8-11.3,8.9-23.3,8.9-34.7c0-37.5-27.8-89.9-73.1-89.9
		c-45.9,0-71.2,52.9-71.2,89.4c0,10.3,1.6,20.8,4.5,30.5c1.2,4-2.1,12.4-5.8,17.1c-2.2,2.8-3.5,3-3.9,3c-0.2,0-0.4,0-0.7-0.3
		c-0.7-0.7-2.3-3.6-1.5-14.4c1.3-18-0.4-19.8-1.1-20.4c-0.5-0.5-1.1-0.6-1.5-0.6c-0.7,0-1.4,0.4-2.1,1.1
		c-4.3,4.9-11.5,31.9-9.4,42.5c1.8,9.2,12.7,26.5,27.1,26.5c6.7,0,12.9-3.8,18.4-11.2c-3.8,8.8-10.1,13.2-18.6,13.2
		c-2.2,0-4.6-0.3-7.1-0.9c-24.2-5.6-38-13.6-42.1-24.3c-3.8-9.8,0.2-22.1,12.1-37.4c6.5-8.3,6.3-11,5.7-12.2
		c-0.3-0.5-0.9-1.3-2.5-1.3c-6.6,0-27.7,16.8-35.7,35.6c-6.1,14.2-3.8,26.8,6.7,36.4c18.6,16.9,44.1,27.9,64.9,27.9
		c10.5,0,19.5-2.9,25.8-8.3c4.8-4.2,8.2-9.8,10-16.8c0.3,22.4-3.1,36.4-10.4,43.7c-3.7,3.7-8.4,4.9-14.3,4.9l0,0
		c-7.8,0-17.8-2.7-29.6-9.2c-5.7-3.2-9.8-4.4-12.2-4.4c-0.9,0-1.7,0.4-2.2,0.8c-0.4,0.3-0.9,1-0.9,2c0,4.1,8.3,13.3,19.3,21.4
		c7.9,5.8,23.4,15.5,38.4,15.5c11.9,0,20.6-6.1,25.9-18.2c5.1-11.8,8.7-25.3,10.3-38.9c1.7,13.4,5.2,26.7,10.3,38.3
		c5.2,12.1,13.9,18.2,25.9,18.2c15,0,30.5-9.7,38.4-15.5c11-8.1,19.3-17.3,19.3-21.4c0-1-0.5-1.6-0.9-2c-0.5-0.4-1.3-0.7-2.2-0.7
		c-2.4,0-6.5,1.6-12.2,4.8c-11.8,6.5-21.8,9.8-29.6,9.8c-5.9,0-10.6-1.8-14.4-5.5c-8.3-8.3-11.6-26-10-54.1c1.1-0.4,2.2-0.9,3.3-1.4
		c-0.6,24.8,19.4,45.1,31,48.1c1.1,0.3,2.3,0.4,3.6,0.4c14,0,41.6-14.4,41.6-21.8c0-0.8-0.3-2.2-2.4-3.1c-1.4-0.6-3.3-0.9-5.9-0.9
		c-3.6,0-8.4,0.6-14.3,1.6c-3.1,0.6-5.9,0.8-8.5,0.8c-6.4,0-11.3-1.8-14.5-5.3c-4-4.4-5.6-11.6-4.6-21.5
		c5.3,10.4,13.6,15.7,24.7,15.7c23.4,0,50.4-23.4,56.3-32.9C365.4,75.3,365.7,73.6,365,72.4z"/>
	<path fill="#DD228D" d="M190,181.2c-15.4,0-31.2-10.3-39.3-16.5c-11.2-8.5-19.7-18.3-19.7-22.6c0-1.1,0.5-1.7,0.9-2.1
		c0.6-0.5,1.3-0.7,2.3-0.7c2.5,0,6.7,1.8,12.5,5.1c12.1,6.9,22.3,10.5,30.3,10.5l0,0c6,0,10.8-2,14.7-5.9c7.5-7.7,11-23.2,10.7-47
		c-1.8,7.4-5.2,13.3-10.2,17.8c-6.4,5.8-15.6,8.8-26.3,8.8c-21.4,0-47.4-11.6-66.4-29.6c-11-10.2-13.3-23.6-7.1-38.7
		c8.2-19.9,29.8-37.8,36.5-37.8c1.6,0,2.3,0.9,2.5,1.4c0.7,1.3,0.8,4.1-5.8,13c-12.2,16.3-16.3,29.3-12.4,39.7
		c4.2,11.4,18.3,19.9,43.1,25.8c2.6,0.6,5,0.9,7.2,0.9c8.7,0,15.1-4.7,19-14c-5.7,7.9-12,11.9-18.8,11.9
		c-14.7,0-25.9-18.3-27.7-28.1c-2.1-11.3,5.2-39.9,9.6-45.1c0.7-0.8,1.4-1.2,2.2-1.2c0.4,0,1,0.1,1.5,0.7c0.7,0.7,2.5,2.6,1.1,21.7
		c-0.8,11.5,0.8,14.5,1.5,15.3c0.3,0.3,0.6,0.4,0.7,0.4c0.4,0,1.7-0.2,4-3.2c3.8-4.9,7.2-13.9,5.9-18.1c-3-10.2-4.6-21.4-4.6-32.3
		c0-38.9,26-95,72.9-95c46.3,0,74.7,55.5,74.7,95.4c0,12.1-3.2,24.8-9.1,36.8c2.9,19.8,10.8,29.5,24.1,29.5c8,0,18.2-3.5,30.3-10.4
		c5.8-3.3,10.1-5,12.5-5c1.6,0,2.4,0.7,2.8,1.3c0.7,1.3,0.4,3.1-1.1,5.6c-6,10.1-33.6,34.9-57.5,34.9l0,0
		c-11.3,0-19.8-5.6-25.3-16.7c-1,10.4,0.6,18.1,4.7,22.8c3.3,3.7,8.3,5.6,14.8,5.6c2.6,0,5.6-0.3,8.7-0.9c6.1-1.2,11-1.7,14.7-1.7
		c2.7,0,4.7,0.3,6,0.9c2.1,1,2.4,2.5,2.4,3.3c0,7.8-28.2,23.1-42.5,23.1c-1.4,0-2.6-0.1-3.7-0.4c-11.9-3.1-32.3-24.7-31.7-51
		c-1.1,0.5-2.3,1-3.4,1.5c-1.6,29.8,1.7,48.6,10.3,57.4c3.8,4,8.6,5.9,14.7,5.9c8,0,18.2-3.5,30.3-10.4c5.8-3.3,10.1-5,12.5-5
		c0.9,0,1.7,0.2,2.3,0.7c0.4,0.3,0.9,1,0.9,2.1c0,4.3-8.5,14.1-19.8,22.7c-8.1,6.1-23.9,16.5-39.3,16.5c-12.2,0-21.1-6.5-26.5-19.3
		c-5.2-12.4-8.8-26.4-10.5-40.6c-1.7,14.4-5.3,28.7-10.6,41.3C211.1,174.7,202.2,181.2,190,181.2z"/>
	<g>
		<g>
			
				<radialGradient id="SVGID_1_" cx="220.2948" cy="87.2508" r="151.1585" gradientTransform="matrix(1 0 0 -1.9503 0 141.0748)" gradientUnits="userSpaceOnUse">
				<stop  offset="0" style="stop-color:#FFC645"/>
				<stop  offset="0.8364" style="stop-color:#FF457D"/>
			</radialGradient>
			<path fill="url(#SVGID_1_)" d="M280.5,84.7c24.1,58.9,115.2-43.8,67.8-16c-35.5,20.8-50.9,9.4-55-20.3c5.8-11.7,9-24.4,9-36.6
				c0-39.1-27.4-94.1-71.9-94.1c-44.4,0-70,54.5-70,93.6c0,10.6,1.5,21.6,4.5,32c2.9,10.1-16.9,42.4-14.3,5.9
				c3.7-52.3-14.7,7.3-11.7,23.9c2.9,15.7,27.7,47.7,48.1,7.8l0.1,0.1c-3.1,14.8-11,27.4-29.8,22.8c-39.9-9.8-59.6-28.1-30.7-67.5
				S64,60.8,102.7,98.2c35.2,34.1,97.9,46.3,100.1-7.3c0.2,0.1,0.4,0.2,0.6,0.2c2.9,53-8.8,81.9-55.8,54.4
				c-47.4-27.8,43.7,74.9,67.8,16c8.2-20.1,12.2-44.4,11.2-66.4c0.1,0,0.3,0,0.4,0c-0.9,21.9,3.1,45.9,11.2,65.8
				c24.1,58.9,115.2-43.8,67.8-16c-47.1,27.6-58.7-1.6-55.8-54.7c2-0.8,3.9-1.7,5.8-2.7c-1.7,26.7,18.8,48.8,30,51.9
				c16.9,4.6,74.2-32.8,22.5-22.8c-28.1,5.4-31.4-14.3-28.6-33.4C280,83.6,280.2,84.1,280.5,84.7z"/>
		</g>
		<defs>
			<filter id="Adobe_OpacityMaskFilter" filterUnits="userSpaceOnUse" x="93" y="-82.3" width="268.8" height="262.3">
				<feColorMatrix  type="matrix" values="1 0 0 0 0  0 1 0 0 0  0 0 1 0 0  0 0 0 1 0"/>
			</filter>
		</defs>
		<mask maskUnits="userSpaceOnUse" x="93" y="-82.3" width="268.8" height="262.3" id="SVGID_2_">
			<g filter="url(#Adobe_OpacityMaskFilter)">
			</g>
		</mask>
		<g opacity="0.16" mask="url(#SVGID_2_)">
			<path fill="#A00A4E" d="M280.5,84.7c24.1,58.9,115.2-43.8,67.8-16c-35.5,20.8-50.9,9.4-55-20.3c5.8-11.7,9-24.4,9-36.6
				c0-39.1-27.4-94.1-71.9-94.1c-44.4,0-70,54.5-70,93.6c0,10.6,1.5,21.6,4.5,32c2.9,10.1-16.9,42.4-14.3,5.9
				c3.7-52.3-14.7,7.3-11.7,23.9c2.9,15.7,27.7,47.7,48.1,7.8l0.1,0.1c-3.1,14.8-11,27.4-29.8,22.8c-39.9-9.8-59.6-28.1-30.7-67.5
				S64,60.8,102.7,98.2c35.2,34.1,97.9,46.3,100.1-7.3c0.2,0.1,0.4,0.2,0.6,0.2c2.9,53-8.8,81.9-55.8,54.4
				c-47.4-27.8,43.7,74.9,67.8,16c8.2-20.1,12.2-44.4,11.2-66.4c0.1,0,0.3,0,0.4,0c-0.9,21.9,3.1,45.9,11.2,65.8
				c24.1,58.9,115.2-43.8,67.8-16c-47.1,27.6-58.7-1.6-55.8-54.7c2-0.8,3.9-1.7,5.8-2.7c-1.7,26.7,18.8,48.8,30,51.9
				c16.9,4.6,74.2-32.8,22.5-22.8c-28.1,5.4-31.4-14.3-28.6-33.4C280,83.6,280.2,84.1,280.5,84.7z"/>
		</g>
	</g>
	<g opacity="0.22">
		<path fill="#FFFFFF" d="M112.8,69c-0.1-8.9,4.1-19.7,13.7-32.8c10.4-14.1,5.2-15-3.8-8.5C110.2,45.4,107.8,58.8,112.8,69z"/>
		<path fill="#FFFFFF" d="M162.6,34.1c0-0.5-0.1-1-0.3-1.4c0-0.1,0-0.2-0.1-0.2C162.4,33,162.5,33.6,162.6,34.1z"/>
		<path fill="#FFFFFF" d="M148,38.6c-0.7,10.4,0.4,15.2,2.2,16.6c0-1.8,0.1-3.8,0.2-6.1c1.2-17.2,0-22.3-2-20.8
			C148.5,31,148.3,34.5,148,38.6z"/>
		<path fill="#FFFFFF" d="M254,88.3c-0.6-3.7-0.8-7.5-0.6-11.3c-1.9,1-3.9,1.9-5.8,2.7c-1.1,19.3-0.2,35.4,3.5,46.8
			c-1.6-10.1-1.8-22.4-1.1-36.3C251.4,89.5,252.7,88.9,254,88.3z"/>
		<path fill="#FFFFFF" d="M184.6,70.4l-0.1-0.1c-17.8,34.9-38.9,14.9-45.9-1.2c0,1.4,0.1,2.7,0.3,3.9c1,5.5,4.7,13,10,18.7
			c1.9,0.6,3.9,1.1,6,1.6C173.5,97.8,181.4,85.1,184.6,70.4z"/>
		<path fill="#FFFFFF" d="M299.7,1.2c0,12.2-3.2,24.9-9,36.6c0.6,4.6,1.5,8.7,2.8,12.4c-0.1-0.6-0.2-1.3-0.3-1.9
			c5.8-11.7,9-24.4,9-36.6c0-9-1.5-18.9-4.2-28.7C299.1-10.8,299.7-4.6,299.7,1.2z"/>
		<path fill="#FFFFFF" d="M201.1,102.2c0.3-6.6,0.2-13.9-0.3-21.7c-0.2-0.1-0.4-0.2-0.6-0.2c-2.2,53.6-64.9,41.4-100.1,7.3
			c-3.3-3.2-5.6-6.6-7.2-10.1c0.3,7.2,3.2,14.2,9.7,20.5C135,129.5,190.8,142.3,201.1,102.2z"/>
		<path fill="#FFFFFF" d="M351.1,67c-17.5,18.1-58.2,43.7-73.1,7.2c-0.2-0.5-0.4-1.1-0.6-1.6c-1.3,8.8-1.3,17.6,1.7,24.2
			c-0.3-4.4,0-9.1,0.7-13.7c0.2,0.5,0.4,1.1,0.6,1.6C304,142.3,391.7,45.2,351.1,67z"/>
		<path fill="#FFFFFF" d="M304.4,135.9c-2.4,1.4-9.1,2.7-9.7,3c-3.4,0.7-6.5,0.9-8.8,0.3c-9.8-2.6-26.8-20-29.7-42.2
			c5.8,17,19,29.6,27.2,31.8c8.7,2.3,28-6.4,37.8-14c15-0.5,7.6,8-4.7,15.2c0,0-5.4,3-7.4,3.9C307,134.8,304.4,135.9,304.4,135.9z"
			/>
		<path fill="#FFFFFF" d="M224.4,84.5c-0.1,0-0.3,0-0.4,0c1,22-3,46.4-11.2,66.4c-15.8,38.7-60.6,7.6-76-10.4
			c-18.1-3,56.9,73.4,78.4,20.8c5.8-14.3,9.5-30.8,10.8-47C224.6,104.4,224,94.2,224.4,84.5z"/>
		<path fill="#FFFFFF" d="M308.7,143.1c-17.5,18.1-58.2,43.7-73.1,7.2c-2.2-5.3-4-10.9-5.6-16.7c1.9,9.5,4.6,18.7,8.1,27.2
			C261.6,218.4,349.4,121.3,308.7,143.1z"/>
	</g>
	<path opacity="0.21" fill="#FFFFFF" enable-background="new    " d="M277.7,0.5c0,40.3-46.1,57.3-76,57.3s-38.6-20.6-38.6-60.9
		s35.3-74.4,65.2-74.4C258.3-77.5,277.7-39.9,277.7,0.5z"/>
	<g>
		<path fill="#D8528F" d="M208.5,2.7c-2,14.6-19.6,24.3-31.7,22.7c-12.1-1.6-14-13.9-12.1-28.6c2-14.6,13.3-25.2,25.4-23.6
			C202.3-25,210.5-11.9,208.5,2.7z"/>
		<path fill="#721441" d="M203.6,5.1c-1.6,12-16.1,20-26,18.6c-9.9-1.3-11.5-11.4-9.9-23.4s10.9-20.6,20.9-19.3
			C198.5-17.7,205.2-6.9,203.6,5.1z"/>
		
			<radialGradient id="SVGID_3_" cx="185.1277" cy="98.0449" r="19.3123" gradientTransform="matrix(1 0 0 -1 0 98.6)" gradientUnits="userSpaceOnUse">
			<stop  offset="0" style="stop-color:#FFFFFF"/>
			<stop  offset="0.3517" style="stop-color:#FDFDFD"/>
			<stop  offset="0.5553" style="stop-color:#F4F4F4"/>
			<stop  offset="0.721" style="stop-color:#E6E6E6"/>
			<stop  offset="0.8655" style="stop-color:#D3D3D3"/>
			<stop  offset="0.9965" style="stop-color:#B9B9B9"/>
			<stop  offset="1" style="stop-color:#B8B8B8"/>
		</radialGradient>
		<path fill="url(#SVGID_3_)" d="M202.6,3.2c-1.5,11.6-15.6,19.3-25.2,18c-9.6-1.3-11.1-11-9.6-22.6s10.6-20,20.2-18.7
			C197.7-18.8,204.2-8.4,202.6,3.2z"/>
		<ellipse transform="matrix(0.1322 -0.9912 0.9912 0.1322 166.019 177.8317)" cx="184.6" cy="-5.9" rx="7.4" ry="5.1"/>
	</g>
	<g>
		<path fill="#E95F99" d="M203.6,27.9c-0.3,2.2-2.2,3.8-3.4,3.6c-1.2-0.2-1.3-2-1-4.2s1.5-3.9,2.7-3.7
			C203.2,23.8,203.9,25.7,203.6,27.9z"/>
		<path fill="#721441" d="M203.1,28.3c-0.2,1.8-1.8,3.1-2.8,3s-1.1-1.6-0.8-3.5c0.2-1.8,1.2-3.2,2.2-3.1
			C202.7,24.9,203.4,26.5,203.1,28.3z"/>
	</g>
	<g>
		<path fill="#E95F99" d="M209.6,30c-0.2,1.3-1.3,2.2-2,2.1c-0.7-0.1-0.8-1.2-0.6-2.5c0.2-1.3,0.9-2.3,1.6-2.2
			C209.3,27.5,209.7,28.7,209.6,30z"/>
		<path fill="#721441" d="M209.3,30.2c-0.1,1.1-1,1.8-1.6,1.8c-0.6-0.1-0.6-1-0.5-2c0.1-1.1,0.7-1.9,1.3-1.8
			C209.1,28.2,209.4,29.1,209.3,30.2z"/>
	</g>
	<g>
		<path fill="#D8528F" d="M215.3,3.6c-2,14.6,12.6,28.6,24.7,30.2c12.1,1.6,17.2-9.8,19.1-24.4c2-14.6-6.3-27.8-18.4-29.4
			C228.6-21.5,217.2-11,215.3,3.6z"/>
		<path fill="#721441" d="M219.4,7.2c-1.6,12,10.3,23.5,20.2,24.8c9.9,1.3,14.1-8,15.7-20c1.6-12-5.1-22.8-15.1-24.1
			C230.4-13.5,221-4.8,219.4,7.2z"/>
		
			<radialGradient id="SVGID_4_" cx="238.2629" cy="90.3045" r="19.5985" gradientTransform="matrix(1 0 0 -1 0 98.6)" gradientUnits="userSpaceOnUse">
			<stop  offset="0" style="stop-color:#FFFFFF"/>
			<stop  offset="0.3517" style="stop-color:#FDFDFD"/>
			<stop  offset="0.5553" style="stop-color:#F4F4F4"/>
			<stop  offset="0.721" style="stop-color:#E6E6E6"/>
			<stop  offset="0.8655" style="stop-color:#D3D3D3"/>
			<stop  offset="0.9965" style="stop-color:#B9B9B9"/>
			<stop  offset="1" style="stop-color:#B8B8B8"/>
		</radialGradient>
		<path fill="url(#SVGID_4_)" d="M220.9,5.6c-1.5,11.6,10,22.7,19.6,24s13.6-7.7,15.2-19.3c1.5-11.6-5-22-14.6-23.3
			C231.4-14.3,222.4-6,220.9,5.6z"/>
		<ellipse transform="matrix(-0.1322 0.9912 -0.9912 -0.1322 286.0884 -217.2651)" cx="238.1" cy="16.6" rx="7.4" ry="5.1"/>
	</g>
	<path opacity="0.43" fill="#FFFFFF" enable-background="new    " d="M199.3,46c2.4-0.6,5-0.8,7.4-0.5c2.7,0.3,5,1.6,6.3,2
		c0.7,0.2,1.2-0.2,1.2-0.2c-6.5-11.9-15.3-2.4-15.3-2.4S197.9,46.4,199.3,46z"/>
	<path fill="#721441" d="M200.2,44.3c2.3-0.3,4.7-0.3,7,0c2.6,0.4,4.8,1.5,6.1,1.9c0.6,0.2,1.1-0.1,1.1-0.1
		c-6.9-9.6-14.8-2.7-14.8-2.7S198.9,44.5,200.2,44.3z"/>
	<path opacity="0.43" fill="#FFFFFF" enable-background="new    " d="M202.1,49.2c0.7-0.2,1.5-0.2,2.2-0.2c0.8,0.1,1.5,0.5,1.9,0.6
		c0.2,0.1,0.4-0.1,0.4-0.1c-2-3.6-4.7-0.7-4.7-0.7S201.7,49.3,202.1,49.2z"/>
	<path fill="#721441" d="M203.4,48.6c0.7-0.1,1.4-0.1,2.1,0c0.8,0.1,1.5,0.5,1.9,0.6c0.2,0.1,0.3,0,0.3,0c-2.1-2.9-4.5-0.8-4.5-0.8
		S203,48.7,203.4,48.6z"/>
	<g opacity="0.19">
		<path fill="#FFFFFF" d="M239.1,122.9c0,2.6-2.4,3.9-4.7,3.9s-3-1.1-3-3.7c0-2.6,2.8-4.8,5.1-4.8S239.1,120.3,239.1,122.9z"/>
		<path fill="#FFFFFF" d="M146.5,147.9c-1,1-3.1-0.3-4.8-1.9c-1.6-1.6-1.7-2.5-0.8-3.5c1-1,3.7,0.2,5.4,1.8
			C148,145.9,147.5,146.9,146.5,147.9z"/>
		<path fill="#FFFFFF" d="M278.2,158.8c0,4.9-4.5,7.3-8.9,7.3c-4.4,0-5.7-2-5.7-7c0-4.9,3.9-4.8,8.3-4.8
			C276.3,154.3,278.2,153.8,278.2,158.8z"/>
		<path fill="#FFFFFF" d="M202.7,172.9c0,4.9-4.5,7.3-8.9,7.3c-4.4,0-5.7-2-5.7-7s3.9-4.8,8.3-4.8
			C200.8,168.4,202.7,167.9,202.7,172.9z"/>
		<path fill="#FFFFFF" d="M244.9-58.5c0,4.6-4.2,6.7-8.2,6.7c-4.1,0-5.3-1.9-5.3-6.4c0-4.6,4.8-8.4,8.9-8.4
			C244.3-66.6,244.9-63.1,244.9-58.5z"/>
		<path fill="#FFFFFF" d="M197.5-48.9c0,5.8-5.3,8.5-10.4,8.5c-5.2,0-6.7-2.4-6.7-8.2s6.1-10.7,11.3-10.7
			C196.8-59.3,197.5-54.7,197.5-48.9z"/>
		<path fill="#FFFFFF" d="M224.1-28.5c0,2.7-2.5,4-5,4c-2.4,0-3.2-1.1-3.2-3.9c0-2.7,2.9-5.1,5.3-5.1
			C223.8-33.4,224.1-31.2,224.1-28.5z"/>
		<path fill="#FFFFFF" d="M294.5,4.5c0,5.8-5.3,8.5-10.4,8.5c-5.2,0-6.7-2.4-6.7-8.2c0-5.8,6.1-10.7,11.3-10.7
			C293.8-5.8,294.5-1.3,294.5,4.5z"/>
		<path fill="#FFFFFF" d="M227.8,64.6c-4.4-1.3-5.3-5.9-4.2-9.8c1.1-3.9,3.3-4.5,7.6-3.3c4.4,1.3,6.8,7,5.6,10.9
			C235.8,66.3,232.2,65.9,227.8,64.6z"/>
		<path fill="#FFFFFF" d="M284.3,73.9c-3.2-0.9-3.8-4.2-3-7.1c0.8-2.8,2.4-3.3,5.5-2.4c3.2,0.9,4.9,5,4.1,7.9
			C290.1,75.2,287.5,74.9,284.3,73.9z"/>
		<path fill="#FFFFFF" d="M321.7,84.4c-2.1-0.6-2.5-2.8-2-4.7s1.6-2.2,3.6-1.6c2.1,0.6,3.2,3.3,2.7,5.2S323.8,85,321.7,84.4z"/>
		<path fill="#FFFFFF" d="M250.8-25.3c-5.6-1.6-6.7-7.5-5.3-12.4c1.4-5,4.1-5.8,9.7-4.2s8.6,8.8,7.1,13.8
			C260.9-23.1,256.4-23.7,250.8-25.3z"/>
		<path fill="#FFFFFF" d="M178.9,37c-2.6-0.8-3.2-3.5-2.5-5.9c0.7-2.3,2-2.7,4.6-2c2.6,0.8,4.1,4.2,3.4,6.5
			C183.7,38,181.6,37.8,178.9,37z"/>
		<path fill="#FFFFFF" d="M163.9,77.1c-5.6-1.6-6.7-7.5-5.3-12.4c1.4-5,4.1-5.8,9.7-4.2c5.6,1.6,8.6,8.8,7.1,13.8
			C174,79.2,169.5,78.7,163.9,77.1z"/>
		<path fill="#FFFFFF" d="M95.8,82.2c-1.9-0.5-1.7-4.3-0.8-7.7c1-3.4,2-4.2,3.9-3.7s2.3,5,1.3,8.4C99.3,82.7,97.7,82.8,95.8,82.2z"
			/>
		<path fill="#FFFFFF" d="M170.5,110.1c-1-1.7,1.7-4.3,4.8-6.1c3.1-1.8,4.4-1.6,5.4,0c1,1.7-1.8,5.2-4.9,7
			C172.7,112.8,171.5,111.8,170.5,110.1z"/>
	</g>
</g>
</svg>
