<?xml version="1.0" encoding="utf-8"?>
<!-- Generator: Adobe Illustrator 19.1.0, SVG Export Plug-In . SVG Version: 6.00 Build 0)  -->
<!DOCTYPE svg PUBLIC "-//W3C//DTD SVG 1.1//EN" "http://www.w3.org/Graphics/SVG/1.1/DTD/svg11.dtd">
<svg version="1.1" id="Layer_1" xmlns="http://www.w3.org/2000/svg" xmlns:xlink="http://www.w3.org/1999/xlink" x="0px" y="0px"
	 width="277.4px" height="266.7px" viewBox="0 0 277.4 266.7" enable-background="new 0 0 277.4 266.7" xml:space="preserve">
<g>
	<path fill="#DD228D" d="M101,264.9c-15.4,0-31.2-10.3-39.3-16.5C50.5,239.9,42,230.1,42,225.8c0-1.1,0.5-1.7,0.9-2.1
		c0.6-0.5,1.3-0.7,2.3-0.7c2.5,0,6.7,1.8,12.5,5.1c12.1,6.9,22.3,10.5,30.3,10.5c0,0,0,0,0,0c6,0,10.8-2,14.7-5.9
		c7.5-7.7,11-23.2,10.7-47c-1.8,7.4-5.2,13.3-10.2,17.8c-6.4,5.8-15.6,8.8-26.3,8.8c-21.4,0-47.4-11.6-66.4-29.6
		C-0.5,172.5-2.8,159.1,3.4,144c8.2-19.9,29.8-37.8,36.5-37.8c1.6,0,2.3,0.9,2.5,1.4c0.7,1.3,0.8,4.1-5.8,13
		c-12.2,16.3-16.3,29.3-12.4,39.7c4.2,11.4,18.3,19.9,43.1,25.8c2.6,0.6,5,0.9,7.2,0.9c8.7,0,15.1-4.7,19-14
		c-5.7,7.9-12,11.9-18.8,11.9c-14.7,0-25.9-18.3-27.7-28.1c-2.1-11.3,5.2-39.9,9.6-45.1c0.7-0.8,1.4-1.2,2.2-1.2
		c0.4,0,1,0.1,1.5,0.7c0.7,0.7,2.5,2.6,1.1,21.7c-0.8,11.5,0.8,14.5,1.5,15.3c0.3,0.3,0.6,0.4,0.7,0.4c0.4,0,1.7-0.2,4-3.2
		c3.8-4.9,7.2-13.9,5.9-18.1c-3-10.2-4.6-21.4-4.6-32.3C68.9,56.1,94.9,0,141.8,0c46.3,0,74.7,55.5,74.7,95.4
		c0,12.1-3.2,24.8-9.1,36.8c2.9,19.8,10.8,29.5,24.1,29.5c8,0,18.2-3.5,30.3-10.4c5.8-3.3,10.1-5,12.5-5c1.6,0,2.4,0.7,2.8,1.3
		c0.7,1.3,0.4,3.1-1.1,5.6c-6,10.1-33.6,34.9-57.5,34.9c0,0,0,0,0,0c-11.3,0-19.8-5.6-25.3-16.7c-1,10.4,0.6,18.1,4.7,22.8
		c3.3,3.7,8.3,5.6,14.8,5.6c2.6,0,5.6-0.3,8.7-0.9c6.1-1.2,11-1.7,14.7-1.7c2.7,0,4.7,0.3,6,0.9c2.1,1,2.4,2.5,2.4,3.3
		c0,7.8-28.2,23.1-42.5,23.1c-1.4,0-2.6-0.1-3.7-0.4c-11.9-3.1-32.3-24.7-31.7-51c-1.1,0.5-2.3,1-3.4,1.5
		c-1.6,29.8,1.7,48.6,10.3,57.4c3.8,4,8.6,5.9,14.7,5.9c8,0,18.2-3.5,30.3-10.4c5.8-3.3,10.1-5,12.5-5c0.9,0,1.7,0.2,2.3,0.7
		c0.4,0.3,0.9,1,0.9,2.1c0,4.3-8.5,14.1-19.8,22.7c-8.1,6.1-23.9,16.5-39.3,16.5c-12.2,0-21.1-6.5-26.5-19.3
		c-5.2-12.4-8.8-26.4-10.5-40.6c-1.7,14.4-5.3,28.7-10.6,41.3C122.1,258.4,113.2,264.9,101,264.9z"/>
	<g>
		<g>
			
				<radialGradient id="SVGID_1_" cx="131.2948" cy="54.6067" r="151.1585" gradientTransform="matrix(1 0 0 1.9503 0 -51.89)" gradientUnits="userSpaceOnUse">
				<stop  offset="0" style="stop-color:#FFC645"/>
				<stop  offset="0.8364" style="stop-color:#FF457D"/>
			</radialGradient>
			<path fill="url(#SVGID_1_)" d="M191.5,168.4c24.1,58.9,115.2-43.8,67.8-16c-35.5,20.8-50.9,9.4-55-20.3c5.8-11.7,9-24.4,9-36.6
				c0-39.1-27.4-94.1-71.9-94.1c-44.4,0-70,54.5-70,93.6c0,10.6,1.5,21.6,4.5,32c2.9,10.1-16.9,42.4-14.3,5.9
				c3.7-52.3-14.7,7.3-11.7,23.9c2.9,15.7,27.7,47.7,48.1,7.8c0,0,0.1,0.1,0.1,0.1c-3.1,14.8-11,27.4-29.8,22.8
				c-39.9-9.8-59.6-28.1-30.7-67.5c28.9-39.4-62.6,24.5-23.9,61.9c35.2,34.1,97.9,46.3,100.1-7.3c0.2,0.1,0.4,0.2,0.6,0.2
				c2.9,53-8.8,81.9-55.8,54.4c-47.4-27.8,43.7,74.9,67.8,16c8.2-20.1,12.2-44.4,11.2-66.4c0.1,0,0.3,0,0.4,0
				c-0.9,21.9,3.1,45.9,11.2,65.8c24.1,58.9,115.2-43.8,67.8-16c-47.1,27.6-58.7-1.6-55.8-54.7c2-0.8,3.9-1.7,5.8-2.7
				c-1.7,26.7,18.8,48.8,30,51.9c16.9,4.6,74.2-32.8,22.5-22.8c-28.1,5.4-31.4-14.3-28.6-33.4C191,167.3,191.2,167.8,191.5,168.4z"
				/>
		</g>
		<defs>
			<filter id="Adobe_OpacityMaskFilter" filterUnits="userSpaceOnUse" x="3.9" y="1.2" width="268.8" height="262.4">
				
					<feColorMatrix  type="matrix" values="-1 0 0 0 1  0 -1 0 0 1  0 0 -1 0 1  0 0 0 1 0" color-interpolation-filters="sRGB" result="source"/>
			</filter>
		</defs>
		<mask maskUnits="userSpaceOnUse" x="3.9" y="1.2" width="268.8" height="262.4" id="SVGID_2_">
			<g filter="url(#Adobe_OpacityMaskFilter)">
				
					<image overflow="visible" width="1137" height="1111" xlink:href="803967B895493C0A.jpg"  transform="matrix(0.24 0 0 0.24 1.903 -0.772)">
				</image>
			</g>
		</mask>
		<g opacity="0.16" mask="url(#SVGID_2_)">
			<path fill="#A00A4E" d="M191.5,168.4c24.1,58.9,115.2-43.8,67.8-16c-35.5,20.8-50.9,9.4-55-20.3c5.8-11.7,9-24.4,9-36.6
				c0-39.1-27.4-94.1-71.9-94.1c-44.4,0-70,54.5-70,93.6c0,10.6,1.5,21.6,4.5,32c2.9,10.1-16.9,42.4-14.3,5.9
				c3.7-52.3-14.7,7.3-11.7,23.9c2.9,15.7,27.7,47.7,48.1,7.8c0,0,0.1,0.1,0.1,0.1c-3.1,14.8-11,27.4-29.8,22.8
				c-39.9-9.8-59.6-28.1-30.7-67.5c28.9-39.4-62.6,24.5-23.9,61.9c35.2,34.1,97.9,46.3,100.1-7.3c0.2,0.1,0.4,0.2,0.6,0.2
				c2.9,53-8.8,81.9-55.8,54.4c-47.4-27.8,43.7,74.9,67.8,16c8.2-20.1,12.2-44.4,11.2-66.4c0.1,0,0.3,0,0.4,0
				c-0.9,21.9,3.1,45.9,11.2,65.8c24.1,58.9,115.2-43.8,67.8-16c-47.1,27.6-58.7-1.6-55.8-54.7c2-0.8,3.9-1.7,5.8-2.7
				c-1.7,26.7,18.8,48.8,30,51.9c16.9,4.6,74.2-32.8,22.5-22.8c-28.1,5.4-31.4-14.3-28.6-33.4C191,167.3,191.2,167.8,191.5,168.4z"
				/>
		</g>
	</g>
	<g>
		<path fill="#D8528F" d="M119.5,86.4c-2,14.6-19.6,24.3-31.7,22.7c-12.1-1.6-14-13.9-12.1-28.6c2-14.6,13.3-25.2,25.4-23.6
			C113.3,58.7,121.5,71.8,119.5,86.4z"/>
		<path fill="#721441" d="M114.6,88.8c-1.6,12-16.1,20-26,18.6C78.7,106.1,77.1,96,78.7,84c1.6-12,10.9-20.6,20.9-19.3
			C109.5,66,116.2,76.8,114.6,88.8z"/>
		<path fill="#FFFFFF" d="M113.6,86.9c-1.5,11.6-15.6,19.3-25.2,18c-9.6-1.3-11.1-11-9.6-22.6c1.5-11.6,10.6-20,20.2-18.7
			C108.7,64.9,115.2,75.3,113.6,86.9z"/>
		<ellipse transform="matrix(0.9912 0.1322 -0.1322 0.9912 11.1254 -11.4234)" cx="91.6" cy="78.1" rx="5.1" ry="7.4"/>
	</g>
	<g>
		<path fill="#E95F99" d="M114.6,111.6c-0.3,2.2-2.2,3.8-3.4,3.6c-1.2-0.2-1.3-2-1-4.2c0.3-2.2,1.5-3.9,2.7-3.7
			C114.2,107.5,114.9,109.4,114.6,111.6z"/>
		<path fill="#721441" d="M114.1,112c-0.2,1.8-1.8,3.1-2.8,3c-1-0.1-1.1-1.6-0.8-3.5c0.2-1.8,1.2-3.2,2.2-3.1
			C113.7,108.6,114.4,110.2,114.1,112z"/>
	</g>
	<g>
		<path fill="#E95F99" d="M120.6,113.7c-0.2,1.3-1.3,2.2-2,2.1c-0.7-0.1-0.8-1.2-0.6-2.5c0.2-1.3,0.9-2.3,1.6-2.2
			C120.3,111.2,120.7,112.4,120.6,113.7z"/>
		<path fill="#721441" d="M120.3,113.9c-0.1,1.1-1,1.8-1.6,1.8c-0.6-0.1-0.6-1-0.5-2c0.1-1.1,0.7-1.9,1.3-1.8
			C120.1,111.9,120.4,112.8,120.3,113.9z"/>
	</g>
	<g>
		<path fill="#D8528F" d="M126.3,87.3c-2,14.6,12.6,28.6,24.7,30.2c12.1,1.6,17.2-9.8,19.1-24.4c2-14.6-6.3-27.8-18.4-29.4
			C139.6,62.2,128.2,72.7,126.3,87.3z"/>
		<path fill="#721441" d="M130.4,90.9c-1.6,12,10.3,23.5,20.2,24.8c9.9,1.3,14.1-8,15.7-20c1.6-12-5.1-22.8-15.1-24.1
			C141.4,70.2,132,78.9,130.4,90.9z"/>
		<path fill="#FFFFFF" d="M131.9,89.3c-1.5,11.6,10,22.7,19.6,24c9.6,1.3,13.6-7.7,15.2-19.3c1.5-11.6-5-22-14.6-23.3
			C142.4,69.4,133.4,77.7,131.9,89.3z"/>
		<ellipse transform="matrix(-0.9912 -0.1322 0.1322 -0.9912 285.0221 222.0299)" cx="149.9" cy="101.6" rx="5.1" ry="7.4"/>
	</g>
	<path fill="#721441" d="M111.2,128c2.3-0.3,4.7-0.3,7,0c2.6,0.4,4.8,1.5,6.1,1.9c0.6,0.2,1.1-0.1,1.1-0.1
		c-6.9-9.6-14.8-2.7-14.8-2.7S109.9,128.2,111.2,128z"/>
	<path fill="#721441" d="M114.4,132.3c0.7-0.1,1.4-0.1,2.1,0c0.8,0.1,1.5,0.5,1.9,0.6c0.2,0.1,0.3,0,0.3,0c-2.1-2.9-4.5-0.8-4.5-0.8
		S114,132.4,114.4,132.3z"/>
	<g opacity="0.19">
		<path fill="#FFFFFF" d="M150.1,206.6c0,2.6-2.4,3.9-4.7,3.9c-2.3,0-3-1.1-3-3.7c0-2.6,2.8-4.8,5.1-4.8S150.1,204,150.1,206.6z"/>
		<path fill="#FFFFFF" d="M57.5,231.6c-1,1-3.1-0.3-4.8-1.9c-1.6-1.6-1.7-2.5-0.8-3.5c1-1,3.7,0.2,5.4,1.8
			C59,229.6,58.5,230.6,57.5,231.6z"/>
		<path fill="#FFFFFF" d="M189.2,242.5c0,4.9-4.5,7.3-8.9,7.3c-4.4,0-5.7-2-5.7-7c0-4.9,3.9-4.8,8.3-4.8
			C187.3,238,189.2,237.5,189.2,242.5z"/>
		<path fill="#FFFFFF" d="M113.7,256.6c0,4.9-4.5,7.3-8.9,7.3c-4.4,0-5.7-2-5.7-7s3.9-4.8,8.3-4.8
			C111.8,252.1,113.7,251.6,113.7,256.6z"/>
		<path fill="#FFFFFF" d="M155.9,25.2c0,4.6-4.2,6.7-8.2,6.7c-4.1,0-5.3-1.9-5.3-6.4c0-4.6,4.8-8.4,8.9-8.4
			C155.3,17.1,155.9,20.6,155.9,25.2z"/>
		<path fill="#FFFFFF" d="M108.5,34.8c0,5.8-5.3,8.5-10.4,8.5c-5.2,0-6.7-2.4-6.7-8.2c0-5.8,6.1-10.7,11.3-10.7
			C107.8,24.4,108.5,29,108.5,34.8z"/>
		<path fill="#FFFFFF" d="M135.1,55.2c0,2.7-2.5,4-5,4c-2.4,0-3.2-1.1-3.2-3.9c0-2.7,2.9-5.1,5.3-5.1
			C134.8,50.3,135.1,52.5,135.1,55.2z"/>
		<path fill="#FFFFFF" d="M205.5,88.2c0,5.8-5.3,8.5-10.4,8.5c-5.2,0-6.7-2.4-6.7-8.2c0-5.8,6.1-10.7,11.3-10.7
			C204.8,77.9,205.5,82.4,205.5,88.2z"/>
		<path fill="#FFFFFF" d="M138.8,148.3c-4.4-1.3-5.3-5.9-4.2-9.8c1.1-3.9,3.3-4.5,7.6-3.3c4.4,1.3,6.8,7,5.6,10.9
			C146.8,150,143.2,149.6,138.8,148.3z"/>
		<path fill="#FFFFFF" d="M195.3,157.6c-3.2-0.9-3.8-4.2-3-7.1c0.8-2.8,2.4-3.3,5.5-2.4c3.2,0.9,4.9,5,4.1,7.9
			C201.1,158.9,198.5,158.6,195.3,157.6z"/>
		<path fill="#FFFFFF" d="M232.7,168.1c-2.1-0.6-2.5-2.8-2-4.7c0.5-1.9,1.6-2.2,3.6-1.6c2.1,0.6,3.2,3.3,2.7,5.2
			C236.5,168.9,234.8,168.7,232.7,168.1z"/>
		<path fill="#FFFFFF" d="M161.8,58.4c-5.6-1.6-6.7-7.5-5.3-12.4c1.4-5,4.1-5.8,9.7-4.2c5.6,1.6,8.6,8.8,7.1,13.8
			C171.9,60.6,167.4,60,161.8,58.4z"/>
		<path fill="#FFFFFF" d="M89.9,120.7c-2.6-0.8-3.2-3.5-2.5-5.9c0.7-2.3,2-2.7,4.6-2c2.6,0.8,4.1,4.2,3.4,6.5
			C94.7,121.7,92.6,121.5,89.9,120.7z"/>
		<path fill="#FFFFFF" d="M74.9,160.8c-5.6-1.6-6.7-7.5-5.3-12.4c1.4-5,4.1-5.8,9.7-4.2c5.6,1.6,8.6,8.8,7.1,13.8
			C85,162.9,80.5,162.4,74.9,160.8z"/>
		<path fill="#FFFFFF" d="M6.8,165.9c-1.9-0.5-1.7-4.3-0.8-7.7c1-3.4,2-4.2,3.9-3.7c1.9,0.5,2.3,5,1.3,8.4
			C10.3,166.4,8.7,166.5,6.8,165.9z"/>
		<path fill="#FFFFFF" d="M81.5,193.8c-1-1.7,1.7-4.3,4.8-6.1c3.1-1.8,4.4-1.6,5.4,0c1,1.7-1.8,5.2-4.9,7
			C83.7,196.5,82.5,195.5,81.5,193.8z"/>
	</g>
</g>
</svg>
